<svg width="31" height="36" viewBox="0 0 31 36" fill="none" xmlns="http://www.w3.org/2000/svg">
<path d="M26.0717 4.63255C28.8755 7.53597 30.4792 11.4549 30.5434 15.5607C30.6077 19.6664 29.1276 23.6371 26.4161 26.6332L26.0717 27.0022L18.8716 34.457C17.958 35.4025 16.7316 35.9531 15.4407 35.9971C14.1498 36.0412 12.891 35.5754 11.9193 34.6943L11.6749 34.457L4.47319 27.0005C1.60905 24.0343 0 20.0113 0 15.8165C0 11.6217 1.60905 7.59872 4.47319 4.63255C7.33732 1.66638 11.2219 0 15.2724 0C19.3229 0 23.2075 1.66638 26.0717 4.63255Z" fill="#F7A800"/>
<path d="M15 5.66667L5 11.5L15 17.3333L23.3333 12.4723V18.5833H25V11.5L15 5.66667ZM8.33252 15.2421V19.0001C9.85287 21.0242 12.2734 22.3334 14.9998 22.3334C17.7262 22.3334 20.1467 21.0242 21.6671 19.0001L21.6667 15.2428L15.0002 19.1316L8.33252 15.2421Z" fill="#FFF4E0"/>
</svg>
