<svg width="31" height="36" viewBox="0 0 31 36" fill="none" xmlns="http://www.w3.org/2000/svg">
<path d="M26.0717 4.63255C28.8755 7.53597 30.4792 11.4549 30.5434 15.5607C30.6077 19.6664 29.1276 23.6371 26.4161 26.6332L26.0717 27.0022L18.8716 34.457C17.958 35.4025 16.7316 35.9531 15.4407 35.9971C14.1498 36.0412 12.891 35.5754 11.9193 34.6943L11.6749 34.457L4.47319 27.0005C1.60905 24.0343 0 20.0113 0 15.8165C0 11.6217 1.60905 7.59872 4.47319 4.63255C7.33732 1.66638 11.2219 0 15.2724 0C19.3229 0 23.2075 1.66638 26.0717 4.63255Z" fill="#3C5AF3"/>
<rect x="8.33331" y="12.3333" width="13.3333" height="9.16667" fill="#DBE8FE"/>
<path d="M7.5 21.5H22.5M7.5 12.3333H22.5M8.33333 12.3333V21.5M21.6667 12.3333V21.5" stroke="#DBE8FE" stroke-width="2" stroke-linecap="round" stroke-linejoin="round"/>
<rect x="9.16669" y="13.1667" width="2.5" height="1.66667" rx="0.5" fill="#3C5AF3"/>
<rect x="9.16669" y="15.6667" width="2.5" height="1.66667" rx="0.5" fill="#3C5AF3"/>
<rect x="9.16669" y="18.1667" width="2.5" height="1.66667" rx="0.5" fill="#3C5AF3"/>
<rect x="7.5" y="8.16666" width="15" height="2.5" rx="1" fill="#DBE8FE"/>
<rect x="13.3333" y="15.6667" width="3.33333" height="1.66667" rx="0.5" fill="#3C5AF3"/>
<rect x="13.3333" y="13.1667" width="3.33333" height="1.66667" rx="0.5" fill="#3C5AF3"/>
<rect x="13.3333" y="18.1667" width="3.33333" height="3.33333" rx="0.5" fill="#3C5AF3"/>
<rect x="18.3333" y="13.1667" width="2.5" height="1.66667" rx="0.5" fill="#3C5AF3"/>
<rect x="18.3333" y="15.6667" width="2.5" height="1.66667" rx="0.5" fill="#3C5AF3"/>
<rect x="18.3333" y="18.1667" width="2.5" height="1.66667" rx="0.5" fill="#3C5AF3"/>
<path d="M14.9615 4.00566L14.9995 4.00333L15.0388 4.00566L15.0585 4.00832L15.0788 4.01265L15.1158 4.02397C15.1414 4.03338 15.1657 4.04591 15.1882 4.06127L15.2229 4.08857L15.3079 4.16117C15.9805 4.71913 16.8306 5.01874 17.7049 5.00599L17.8189 5.00266C17.8935 4.99926 17.967 5.02094 18.0278 5.06423C18.0885 5.10752 18.133 5.16991 18.154 5.24142C18.3179 5.79805 18.368 6.3819 18.3014 6.95827C18.2349 7.53464 18.053 8.09177 17.7666 8.59655C17.4802 9.10133 17.0951 9.54347 16.6343 9.89668C16.1734 10.2499 15.6461 10.507 15.0838 10.6527C15.0289 10.6669 14.9713 10.6669 14.9164 10.6527C14.3541 10.507 13.8268 10.25 13.3659 9.89676C12.905 9.54356 12.5199 9.10143 12.2334 8.59665C11.947 8.09186 11.7651 7.53472 11.6985 6.95833C11.632 6.38195 11.6821 5.79808 11.8459 5.24142C11.867 5.16991 11.9114 5.10752 11.9722 5.06423C12.0329 5.02094 12.1065 4.99926 12.181 5.00266C13.0938 5.04433 13.9892 4.74425 14.6921 4.16117L14.7797 4.08624L14.8118 4.06127C14.8342 4.04591 14.8585 4.03338 14.8841 4.02397L14.9214 4.01265C14.9345 4.0095 14.9481 4.00716 14.9615 4.00566Z" fill="#3C5AF3"/>
<path d="M14.9711 4.83506L14.9996 4.83331L15.0292 4.83506L15.0439 4.83706L15.0592 4.84031L15.087 4.84881C15.1062 4.85588 15.1244 4.86528 15.1413 4.87681L15.1673 4.89731L15.2312 4.95181C15.7361 5.3707 16.3743 5.59564 17.0307 5.58606L17.1163 5.58356C17.1723 5.58101 17.2275 5.59729 17.2731 5.62979C17.3187 5.66229 17.3521 5.70913 17.3679 5.76281C17.4909 6.18071 17.5285 6.61903 17.4786 7.05174C17.4286 7.48445 17.2921 7.90272 17.0771 8.28168C16.862 8.66065 16.5729 8.99258 16.2269 9.25775C15.8809 9.52293 15.4851 9.71594 15.0629 9.82531C15.0217 9.83598 14.9785 9.83598 14.9373 9.82531C14.5151 9.71597 14.1192 9.52298 13.7732 9.25781C13.4272 8.99265 13.1381 8.66072 12.923 8.28175C12.708 7.90278 12.5714 7.48451 12.5214 7.05179C12.4715 6.61906 12.5091 6.18072 12.6321 5.76281C12.6479 5.70913 12.6813 5.66229 12.7269 5.62979C12.7725 5.59729 12.8277 5.58101 12.8837 5.58356C13.5689 5.61485 14.2412 5.38956 14.7688 4.95181L14.8347 4.89556L14.8587 4.87681C14.8756 4.86528 14.8938 4.85588 14.913 4.84881L14.941 4.84031C14.9509 4.83795 14.9611 4.83619 14.9711 4.83506Z" fill="#DBE8FE"/>
<path d="M14.6587 6.6038L14.078 6.69192L14.0677 6.69412C14.0521 6.69844 14.0379 6.70702 14.0265 6.71896C14.0152 6.73091 14.007 6.7458 14.003 6.76211C13.9989 6.77842 13.999 6.79558 14.0034 6.81182C14.0077 6.82806 14.0161 6.8428 14.0276 6.85455L14.4483 7.28315L14.3491 7.88858L14.3479 7.89906C14.347 7.91591 14.3503 7.93273 14.3576 7.94779C14.3649 7.96284 14.3759 7.9756 14.3895 7.98475C14.403 7.9939 14.4187 7.99912 14.4348 7.99986C14.4509 8.0006 14.4669 7.99685 14.4812 7.98899L15.0006 7.70319L15.5188 7.98899L15.5279 7.99337C15.5429 7.99957 15.5592 8.00146 15.5752 7.99887C15.5912 7.99628 15.6062 7.9893 15.6187 7.97863C15.6312 7.96796 15.6408 7.954 15.6465 7.93818C15.6521 7.92235 15.6537 7.90523 15.651 7.88858L15.5516 7.28315L15.9725 6.85445L15.9796 6.84635C15.9898 6.83328 15.9964 6.81762 15.9989 6.80099C16.0014 6.78435 15.9996 6.76732 15.9938 6.75163C15.9879 6.73595 15.9782 6.72217 15.9656 6.71169C15.953 6.70122 15.9379 6.69443 15.922 6.69202L15.3413 6.6038L15.0817 6.05316C15.0742 6.0372 15.0625 6.02377 15.0481 6.01437C15.0337 6.00498 15.017 6 15 6C14.983 6 14.9664 6.00498 14.952 6.01437C14.9375 6.02377 14.9259 6.0372 14.9184 6.05316L14.6587 6.6038Z" fill="#3C5AF3"/>
</svg>
