<svg width="29" height="28" viewBox="0 0 29 28" fill="none" xmlns="http://www.w3.org/2000/svg">
<path d="M23.1319 27.4221C20.0844 27.4221 17.597 24.8429 17.597 21.683V21.0078C17.597 20.4541 18.0398 19.995 18.5737 19.995C19.1077 19.995 19.5505 20.4541 19.5505 21.0078V21.683C19.5505 23.7355 21.1523 25.3965 23.1319 25.3965C25.1114 25.3965 26.7133 23.7355 26.7133 21.683C26.7133 19.6304 25.1114 17.9694 23.1319 17.9694H1.64349C1.10954 17.9694 0.666748 17.5103 0.666748 16.9566C0.666748 16.403 1.10954 15.9438 1.64349 15.9438H23.1319C26.1793 15.9438 28.6667 18.5231 28.6667 21.683C28.6667 24.8429 26.1793 27.4221 23.1319 27.4221Z" fill="white"/>
<path d="M23.1319 13.9182H1.64349C1.10954 13.9182 0.666748 13.459 0.666748 12.9054C0.666748 12.3517 1.10954 11.8926 1.64349 11.8926H23.1319C25.1114 11.8926 26.7133 10.2316 26.7133 8.17906C26.7133 6.12648 25.1114 4.46551 23.1319 4.46551C21.1523 4.46551 19.5505 6.12648 19.5505 8.17906V8.85425C19.5505 9.4079 19.1077 9.86703 18.5737 9.86703C18.0398 9.86703 17.597 9.4079 17.597 8.85425V8.17906C17.597 5.01917 20.0844 2.43994 23.1319 2.43994C26.1793 2.43994 28.6667 5.01917 28.6667 8.17906C28.6667 11.3389 26.1793 13.9182 23.1319 13.9182Z" fill="white"/>
<path d="M11.1635 9.86874H1.64349C1.10954 9.86874 0.666748 9.40961 0.666748 8.85595C0.666748 8.3023 1.10954 7.84317 1.64349 7.84317H11.1635C12.557 7.84317 13.69 6.66834 13.69 5.22343C13.69 3.77852 12.557 2.60369 11.1635 2.60369C9.77 2.60369 8.63698 3.77852 8.63698 5.22343V5.73658C8.63698 6.29023 8.19419 6.74936 7.66024 6.74936C7.12628 6.74936 6.68349 6.30374 6.68349 5.73658V5.22343C6.68349 2.65771 8.68907 0.578125 11.1635 0.578125C13.6379 0.578125 15.6435 2.65771 15.6435 5.22343C15.6435 7.78915 13.6379 9.86874 11.1635 9.86874Z" fill="white"/>
</svg>
