<svg width="31" height="36" viewBox="0 0 31 36" fill="none" xmlns="http://www.w3.org/2000/svg">
<path d="M26.0717 4.63255C28.8755 7.53597 30.4792 11.4549 30.5434 15.5607C30.6077 19.6664 29.1276 23.6371 26.4161 26.6332L26.0717 27.0022L18.8716 34.457C17.958 35.4025 16.7316 35.9531 15.4407 35.9971C14.1498 36.0412 12.891 35.5754 11.9193 34.6943L11.6749 34.457L4.47319 27.0005C1.60905 24.0343 0 20.0113 0 15.8165C0 11.6217 1.60905 7.59872 4.47319 4.63255C7.33732 1.66638 11.2219 0 15.2724 0C19.3229 0 23.2075 1.66638 26.0717 4.63255Z" fill="#EF4444"/>
<g clip-path="url(#clip0_1153_249)">
<rect x="8.33331" y="12.3333" width="13.3333" height="9.16667" fill="#FEE2E2"/>
<path d="M7.5 21.5H22.5M7.5 12.3333H22.5M8.33333 12.3333V21.5M21.6667 12.3333V21.5" stroke="#FEE2E2" stroke-width="2" stroke-linecap="round" stroke-linejoin="round"/>
<rect x="9.16669" y="13.1667" width="2.5" height="1.66667" rx="0.5" fill="#EF4444"/>
<rect x="13.3333" y="13.1667" width="3.33333" height="1.66667" rx="0.5" fill="#EF4444"/>
<rect x="9" y="16" width="12" height="5" rx="0.5" fill="#EF4444"/>
<path d="M9.59998 16.95C9.59998 16.7015 9.80145 16.5 10.05 16.5H19.95C20.1985 16.5 20.4 16.7015 20.4 16.95V20.05C20.4 20.2985 20.1985 20.5 19.95 20.5H10.05C9.80145 20.5 9.59998 20.2985 9.59998 20.05V16.95Z" fill="#FEE2E2"/>
<rect x="18.3333" y="13.1667" width="2.5" height="1.66667" rx="0.5" fill="#EF4444"/>
<rect x="7.5" y="8.16667" width="15" height="2.5" rx="1" fill="#FEE2E2"/>
<circle cx="15" cy="7" r="3.696" fill="#EF4444"/>
<circle cx="15" cy="7" r="3" fill="#FEE2E2"/>
<g clip-path="url(#clip1_1153_249)">
<path d="M15 9.75C13.9645 9.75 13.125 8.91052 13.125 7.875C13.125 7.33655 13.352 6.85112 13.7154 6.50915C14.051 6.19344 14.875 5.62488 14.75 4.375C16.25 5.375 17 6.375 15.5 7.875C15.75 7.875 16.125 7.875 16.75 7.2574C16.8174 7.4508 16.875 7.65862 16.875 7.875C16.875 8.91052 16.0355 9.75 15 9.75Z" fill="#EF4444"/>
</g>
</g>
<defs>
<clipPath id="clip0_1153_249">
<rect width="20" height="20" fill="white" transform="translate(5 4)"/>
</clipPath>
<clipPath id="clip1_1153_249">
<rect width="6" height="6" fill="white" transform="translate(12 4)"/>
</clipPath>
</defs>
</svg>
