<svg width="31" height="36" viewBox="0 0 31 36" fill="none" xmlns="http://www.w3.org/2000/svg">
<path d="M26.0717 4.63255C28.8755 7.53597 30.4792 11.4549 30.5434 15.5607C30.6077 19.6664 29.1276 23.6371 26.4161 26.6332L26.0717 27.0022L18.8716 34.457C17.958 35.4025 16.7316 35.9531 15.4407 35.9971C14.1498 36.0412 12.891 35.5754 11.9193 34.6943L11.6749 34.457L4.47319 27.0005C1.60905 24.0343 0 20.0113 0 15.8165C0 11.6217 1.60905 7.59872 4.47319 4.63255C7.33732 1.66638 11.2219 0 15.2724 0C19.3229 0 23.2075 1.66638 26.0717 4.63255Z" fill="#8695AA"/>
<g clip-path="url(#clip0_1128_728)">
<path d="M4.6875 15.6875C4.86983 15.6875 5.0447 15.7599 5.17363 15.8889C5.30256 16.0178 5.375 16.1927 5.375 16.375V17.75H9.21555L10.7891 16.1739L6.46297 11.847C6.2053 11.5891 6.06056 11.2395 6.06056 10.875C6.06056 10.5105 6.2053 10.1609 6.46297 9.90305L9.70109 6.66407L11.278 5.09055C11.4057 4.96284 11.5573 4.86153 11.7242 4.79241C11.891 4.72329 12.0698 4.68771 12.2504 4.68771C12.431 4.68771 12.6098 4.72329 12.7767 4.79241C12.9435 4.86153 13.0951 4.96284 13.2228 5.09055L25.7491 17.6589C25.869 17.7792 25.9505 17.9323 25.9835 18.0989C26.0164 18.2655 25.9993 18.4382 25.9342 18.595C25.8691 18.7519 25.759 18.886 25.6177 18.9803C25.4765 19.0746 25.3105 19.125 25.1406 19.125H21.7573L18.722 22.1595C18.4641 22.4171 18.1145 22.5619 17.75 22.5619C17.3855 22.5619 17.0359 22.4171 16.778 22.1595L11.7636 17.1484L10.1875 18.722C10.0603 18.8502 9.90884 18.9519 9.74198 19.0211C9.57512 19.0903 9.39618 19.1256 9.21555 19.125H5.375V20.5C5.375 20.6823 5.30256 20.8572 5.17363 20.9861C5.0447 21.1151 4.86983 21.1875 4.6875 21.1875C4.50516 21.1875 4.33029 21.1151 4.20136 20.9861C4.07243 20.8572 4 20.6823 4 20.5V16.375C4 16.1927 4.07243 16.0178 4.20136 15.8889C4.33029 15.7599 4.50516 15.6875 4.6875 15.6875ZM12.25 6.06251L11.1595 7.15305L21.7573 17.75H23.898L12.25 6.06251Z" fill="#F6F7F9"/>
</g>
<defs>
<clipPath id="clip0_1128_728">
<rect width="22" height="22" fill="white" transform="matrix(-1 0 0 1 26 4)"/>
</clipPath>
</defs>
</svg>
