<svg width="28" height="20" viewBox="0 0 28 20" fill="none" xmlns="http://www.w3.org/2000/svg">
<path d="M27.0157 11.9776C26.8465 11.9776 26.6772 11.9456 26.521 11.86L23.2662 10.2562C21.5737 9.42217 19.4646 9.42217 17.7591 10.2562C15.4417 11.4002 12.5645 11.4002 10.247 10.2562C8.55454 9.42217 6.44544 9.42217 4.73993 10.2562L1.48514 11.86C1.01645 12.0846 0.417569 11.9669 0.144167 11.582C-0.129236 11.2078 0.0139751 10.7052 0.482665 10.4807L3.73745 8.87686C6.05486 7.73282 8.9321 7.73282 11.2495 8.87686C12.942 9.71086 15.0511 9.71086 16.7566 8.87686C19.074 7.73282 21.9513 7.73282 24.2687 8.87686L27.5235 10.4807C27.9922 10.7052 28.1354 11.1971 27.862 11.582C27.6667 11.8386 27.3412 11.9776 27.0157 11.9776Z" fill="white"/>
<path d="M7.48671 4.4897C6.1848 4.4897 4.88288 4.20101 3.72418 3.63431L0.469387 2.03046C0.0137168 1.79523 -0.142513 1.30339 0.143908 0.929155C0.417311 0.544231 1.01619 0.426616 1.48488 0.651155L4.73967 2.255C6.43216 3.08901 8.54126 3.08901 10.2468 2.255C12.5642 1.11092 15.4414 1.11092 17.7588 2.255C19.4513 3.08901 21.5604 3.08901 23.2659 2.255L26.5207 0.651155C26.9894 0.426616 27.5883 0.544231 27.8617 0.929155C28.1351 1.30339 27.9919 1.80593 27.5232 2.03046L24.2684 3.63431C21.951 4.77839 19.0737 4.77839 16.7563 3.63431C15.0638 2.80031 12.9547 2.80031 11.2492 3.63431C10.0905 4.20101 8.78863 4.4897 7.48671 4.4897Z" fill="white"/>
<path d="M27.0157 19.4622C26.8465 19.4622 26.6772 19.4301 26.521 19.3446L23.2662 17.7407C21.5737 16.9067 19.4646 16.9067 17.7591 17.7407C15.4417 18.8848 12.5645 18.8848 10.247 17.7407C8.55454 16.9067 6.44544 16.9067 4.73993 17.7407L1.48514 19.3446C1.01645 19.5691 0.417569 19.4515 0.144167 19.0666C-0.129236 18.6923 0.0139751 18.1898 0.482665 17.9653L3.73745 16.3614C6.05486 15.2173 8.9321 15.2173 11.2495 16.3614C12.942 17.1954 15.0511 17.1954 16.7566 16.3614C19.074 15.2173 21.9513 15.2173 24.2687 16.3614L27.5235 17.9653C27.9922 18.1898 28.1354 18.6817 27.862 19.0666C27.6667 19.3232 27.3412 19.4622 27.0157 19.4622Z" fill="white"/>
</svg>
