<svg width="29" height="28" viewBox="0 0 29 28" fill="none" xmlns="http://www.w3.org/2000/svg">
<g clip-path="url(#clip0_920_1811)">
<path d="M7.73355 5.75063L6.08388 4.10096C5.62888 3.64538 4.88922 3.64538 4.43422 4.10096C3.97863 4.55655 3.97863 5.29505 4.43422 5.75063L6.08388 7.4003C6.31138 7.62838 6.61005 7.74213 6.90872 7.74213C7.20738 7.74213 7.50605 7.62838 7.73355 7.4003C8.18913 6.94471 8.18913 6.20621 7.73355 5.75063Z" fill="white"/>
<path d="M3.83337 12.8335H1.50004C0.856041 12.8335 0.333374 13.3562 0.333374 14.0002C0.333374 14.6442 0.856041 15.1668 1.50004 15.1668H3.83337C4.47737 15.1668 5.00004 14.6442 5.00004 14.0002C5.00004 13.3562 4.47737 12.8335 3.83337 12.8335Z" fill="white"/>
<path d="M7.73355 20.6C7.27855 20.1444 6.53888 20.1444 6.08388 20.6L4.43422 22.2497C3.97863 22.7052 3.97863 23.4437 4.43422 23.8993C4.66172 24.1274 4.96038 24.2412 5.25905 24.2412C5.55772 24.2412 5.85638 24.1274 6.08388 23.8993L7.73355 22.2497C8.18913 21.7941 8.18913 21.0556 7.73355 20.6Z" fill="white"/>
<path d="M14.3334 23.3335C13.6894 23.3335 13.1667 23.8562 13.1667 24.5002V26.8335C13.1667 27.4775 13.6894 28.0002 14.3334 28.0002C14.9774 28.0002 15.5001 27.4775 15.5001 26.8335V24.5002C15.5001 23.8562 14.9774 23.3335 14.3334 23.3335Z" fill="white"/>
<path d="M24.2326 22.2497L22.5829 20.6C22.1279 20.1444 21.3882 20.1444 20.9332 20.6C20.4777 21.0556 20.4777 21.7941 20.9332 22.2497L22.5829 23.8993C22.8104 24.1274 23.1091 24.2412 23.4077 24.2412C23.7064 24.2412 24.0051 24.1274 24.2326 23.8993C24.6882 23.4437 24.6882 22.7052 24.2326 22.2497Z" fill="white"/>
<path d="M27.1668 12.8335H24.8334C24.1894 12.8335 23.6667 13.3562 23.6667 14.0002C23.6667 14.6442 24.1894 15.1668 24.8334 15.1668H27.1668C27.8108 15.1668 28.3334 14.6442 28.3334 14.0002C28.3334 13.3562 27.8108 12.8335 27.1668 12.8335Z" fill="white"/>
<path d="M24.2326 4.10096C23.7776 3.64538 23.0379 3.64538 22.5829 4.10096L20.9332 5.75063C20.4777 6.20621 20.4777 6.94471 20.9332 7.4003C21.1607 7.62838 21.4594 7.74213 21.7581 7.74213C22.0567 7.74213 22.3554 7.62838 22.5829 7.4003L24.2326 5.75063C24.6882 5.29505 24.6882 4.55655 24.2326 4.10096Z" fill="white"/>
<path d="M14.3334 0C13.6894 0 13.1667 0.522667 13.1667 1.16667V3.5C13.1667 4.144 13.6894 4.66667 14.3334 4.66667C14.9774 4.66667 15.5001 4.144 15.5001 3.5V1.16667C15.5001 0.522667 14.9774 0 14.3334 0Z" fill="white"/>
<path d="M14.3333 6.4165C10.152 6.4165 6.75 9.8185 6.75 13.9998C6.75 18.1812 10.152 21.5832 14.3333 21.5832C18.5147 21.5832 21.9167 18.1812 21.9167 13.9998C21.9167 9.8185 18.5147 6.4165 14.3333 6.4165ZM14.3333 19.2498C11.4388 19.2498 9.08333 16.8943 9.08333 13.9998C9.08333 11.1053 11.4388 8.74984 14.3333 8.74984C17.2278 8.74984 19.5833 11.1053 19.5833 13.9998C19.5833 16.8943 17.2278 19.2498 14.3333 19.2498Z" fill="white"/>
</g>
<defs>
<clipPath id="clip0_920_1811">
<rect width="28" height="28" fill="white" transform="translate(0.333374)"/>
</clipPath>
</defs>
</svg>
