<svg width="31" height="36" viewBox="0 0 31 36" fill="none" xmlns="http://www.w3.org/2000/svg">
<path d="M26.0717 4.63255C28.8755 7.53597 30.4792 11.4549 30.5434 15.5607C30.6077 19.6664 29.1276 23.6371 26.4161 26.6332L26.0717 27.0022L18.8716 34.457C17.958 35.4025 16.7316 35.9531 15.4407 35.9971C14.1498 36.0412 12.891 35.5754 11.9193 34.6943L11.6749 34.457L4.47319 27.0005C1.60905 24.0343 0 20.0113 0 15.8165C0 11.6217 1.60905 7.59872 4.47319 4.63255C7.33732 1.66638 11.2219 0 15.2724 0C19.3229 0 23.2075 1.66638 26.0717 4.63255Z" fill="#44B1FF"/>
<path d="M6.66665 19.8333V10.6667H5.83331V9H8.33331V7.33333C8.33331 6.8731 8.70641 6.5 9.16665 6.5H20.8333C21.2936 6.5 21.6666 6.8731 21.6666 7.33333V9H24.1666V10.6667H23.3333V19.8333H24.1666V21.5H5.83331V19.8333H6.66665ZM15.8333 19.8333V14H14.1666V19.8333H15.8333ZM11.6666 19.8333V14H9.99998V19.8333H11.6666ZM20 19.8333V14H18.3333V19.8333H20ZM9.99998 8.16667V9H20V8.16667H9.99998Z" fill="white"/>
</svg>
