<svg width="31" height="36" viewBox="0 0 31 36" fill="none" xmlns="http://www.w3.org/2000/svg">
<path d="M26.0717 4.63255C28.8755 7.53597 30.4792 11.4549 30.5434 15.5607C30.6077 19.6664 29.1276 23.6371 26.4161 26.6332L26.0717 27.0022L18.8716 34.457C17.958 35.4025 16.7316 35.9531 15.4407 35.9971C14.1498 36.0412 12.891 35.5754 11.9193 34.6943L11.6749 34.457L4.47319 27.0005C1.60905 24.0343 0 20.0113 0 15.8165C0 11.6217 1.60905 7.59872 4.47319 4.63255C7.33732 1.66638 11.2219 0 15.2724 0C19.3229 0 23.2075 1.66638 26.0717 4.63255Z" fill="#1BC592"/>
<path d="M8.69696 13.1667H22.0303H8.69696Z" fill="#F0FDF5"/>
<path d="M15.3636 9.41667C15.3636 10.25 11.197 13.1667 8.69696 13.1667L15.3636 9.41667Z" fill="#F0FDF5"/>
<path d="M15.3636 9.41667C15.3636 10.25 19.5303 13.1667 22.0303 13.1667L15.3636 9.41667Z" fill="#F0FDF5"/>
<path d="M10.3636 13.1667C10.0861 17.6108 9.53029 20.3892 8.69696 21.5H12.0303C12.8636 21.5 15.3636 18.1667 15.3636 14V13.1667" fill="#F0FDF5"/>
<path d="M20.3636 13.1667C20.6411 17.6108 21.197 20.3892 22.0303 21.5H18.697C17.8636 21.5 15.3636 18.1667 15.3636 14V13.1667" fill="#F0FDF5"/>
<path d="M15.3636 9.83333V6.5L17.0303 7.33333H15.3636" fill="#F0FDF5"/>
<path d="M10.3636 13.1667C10.0861 17.6108 9.53029 20.3892 8.69696 21.5H12.0303C12.8636 21.5 15.3636 18.1667 15.3636 14M15.3636 14V13.1667M15.3636 14C15.3636 18.1667 17.8636 21.5 18.697 21.5H22.0303C21.197 20.3892 20.6411 17.6108 20.3636 13.1667M15.3636 9.83333V6.5L17.0303 7.33333H15.3636M8.69696 13.1667H22.0303C19.5303 13.1667 15.3636 10.25 15.3636 9.41667C15.3636 10.25 11.197 13.1667 8.69696 13.1667Z" stroke="#F0FDF5" stroke-width="2" stroke-linecap="round" stroke-linejoin="round"/>
</svg>
