<svg width="31" height="36" viewBox="0 0 31 36" fill="none" xmlns="http://www.w3.org/2000/svg">
<path d="M26.0717 4.63255C28.8755 7.53597 30.4792 11.4549 30.5434 15.5607C30.6077 19.6664 29.1276 23.6371 26.4161 26.6332L26.0717 27.0022L18.8716 34.457C17.958 35.4025 16.7316 35.9531 15.4407 35.9971C14.1498 36.0412 12.891 35.5754 11.9193 34.6943L11.6749 34.457L4.47319 27.0005C1.60905 24.0343 0 20.0113 0 15.8165C0 11.6217 1.60905 7.59872 4.47319 4.63255C7.33732 1.66638 11.2219 0 15.2724 0C19.3229 0 23.2075 1.66638 26.0717 4.63255Z" fill="#238943"/>
<g opacity="0.9">
<path d="M13 19V11M17 19V11M13 15H17M6 15C6 16.1819 6.23279 17.3522 6.68508 18.4442C7.13738 19.5361 7.80031 20.5282 8.63604 21.364C9.47177 22.1997 10.4639 22.8626 11.5558 23.3149C12.6478 23.7672 13.8181 24 15 24C16.1819 24 17.3522 23.7672 18.4442 23.3149C19.5361 22.8626 20.5282 22.1997 21.364 21.364C22.1997 20.5282 22.8626 19.5361 23.3149 18.4442C23.7672 17.3522 24 16.1819 24 15C24 12.6131 23.0518 10.3239 21.364 8.63604C19.6761 6.94821 17.3869 6 15 6C12.6131 6 10.3239 6.94821 8.63604 8.63604C6.94821 10.3239 6 12.6131 6 15Z" stroke="#E9F3EC" stroke-width="2" stroke-linecap="round" stroke-linejoin="round"/>
</g>
</svg>
